<svg width="40" height="40" viewBox="0 0 40 40" fill="none" xmlns="http://www.w3.org/2000/svg">
<g clip-path="url(#clip0_141_1854)">
<path fill-rule="evenodd" clip-rule="evenodd" d="M32.7565 28.6288C32.7565 28.6288 31.5485 18.0815 39.9999 11.0955C39.9999 11.0955 28.5332 16.0288 26.1185 23.6988C26.1185 23.6988 23.4025 12.7415 32.3045 0.00213151C32.3045 0.00213151 10.8799 22.3288 19.4792 40.0021C19.4772 40.0001 25.5125 32.1908 32.7565 28.6288ZM16.3272 23.5621C16.3272 23.5621 17.9872 17.2601 19.3452 15.7548C19.3452 15.7548 13.7612 4.93346 8.47855 0.00146484C8.47855 0.00146484 15.1185 11.5088 14.5145 20.0015C15.2844 21.096 15.8948 22.2944 16.3272 23.5608V23.5621ZM14.1832 32.8755C14.1832 32.8755 13.5792 16.2995 -0.00012207 10.0001C-0.00012207 10.0001 8.59988 17.6715 7.09121 27.1235C7.09121 27.1228 13.1272 30.6828 14.1832 32.8748V32.8755Z" fill="black"/>
</g>
<defs>
<clipPath id="clip0_141_1854">
<rect width="39.998" height="40" fill="white"/>
</clipPath>
</defs>
</svg>
