<svg width="40" height="40" viewBox="0 0 40 40" fill="none" xmlns="http://www.w3.org/2000/svg">
<path fill-rule="evenodd" clip-rule="evenodd" d="M20 15.622L21.072 14.178L25.3333 35.714L20 40L14.6667 35.714L18.9267 14.1807L20 15.622ZM15.006 0H24.994L26.6667 2.962L20 11.142L13.3333 2.962L15.006 0ZM40 8.506C39.24 14.752 29.702 14.16 29.702 14.16L34.078 19.948L27.048 22.774L24 13.084L28.642 8.508H40V8.506ZM11.358 8.506L16 13.084L12.95 22.776L5.92 19.948L10.298 14.16C10.298 14.16 0.76 14.752 0 8.506H11.358Z" fill="black"/>
</svg>
